<mxfile host="app.diagrams.net" agent="Mozilla/5.0 (Windows NT 10.0; Win64; x64) AppleWebKit/537.36 (KHTML, like Gecko) Chrome/127.0.0.0 Safari/537.36" version="24.7.7">
  <diagram name="第 1 页" id="YyVgcnbKj1KslfMFZEIa">
    <mxGraphModel dx="1221" dy="725" grid="1" gridSize="10" guides="1" tooltips="1" connect="1" arrows="1" fold="1" page="1" pageScale="1" pageWidth="827" pageHeight="1169" math="0" shadow="0">
      <root>
        <mxCell id="0" />
        <mxCell id="1" parent="0" />
        <mxCell id="aAILvsh82I3loS7dKXgY-4" style="edgeStyle=orthogonalEdgeStyle;rounded=0;orthogonalLoop=1;jettySize=auto;html=1;exitX=1;exitY=0.5;exitDx=0;exitDy=0;" edge="1" parent="1" source="aAILvsh82I3loS7dKXgY-1" target="aAILvsh82I3loS7dKXgY-2">
          <mxGeometry relative="1" as="geometry" />
        </mxCell>
        <mxCell id="aAILvsh82I3loS7dKXgY-1" value="直线距离测量" style="rounded=0;whiteSpace=wrap;html=1;" vertex="1" parent="1">
          <mxGeometry x="190" y="210" width="120" height="60" as="geometry" />
        </mxCell>
        <mxCell id="aAILvsh82I3loS7dKXgY-5" style="edgeStyle=orthogonalEdgeStyle;rounded=0;orthogonalLoop=1;jettySize=auto;html=1;exitX=1;exitY=0.5;exitDx=0;exitDy=0;" edge="1" parent="1" source="aAILvsh82I3loS7dKXgY-2" target="aAILvsh82I3loS7dKXgY-3">
          <mxGeometry relative="1" as="geometry" />
        </mxCell>
        <mxCell id="aAILvsh82I3loS7dKXgY-2" value="标记起点终点" style="rounded=0;whiteSpace=wrap;html=1;" vertex="1" parent="1">
          <mxGeometry x="354" y="210" width="120" height="60" as="geometry" />
        </mxCell>
        <mxCell id="aAILvsh82I3loS7dKXgY-3" value="调整保存结果" style="rounded=0;whiteSpace=wrap;html=1;" vertex="1" parent="1">
          <mxGeometry x="510" y="210" width="120" height="60" as="geometry" />
        </mxCell>
        <mxCell id="aAILvsh82I3loS7dKXgY-9" style="edgeStyle=orthogonalEdgeStyle;rounded=0;orthogonalLoop=1;jettySize=auto;html=1;exitX=1;exitY=0.5;exitDx=0;exitDy=0;entryX=0;entryY=0.5;entryDx=0;entryDy=0;" edge="1" parent="1" source="aAILvsh82I3loS7dKXgY-6" target="aAILvsh82I3loS7dKXgY-7">
          <mxGeometry relative="1" as="geometry" />
        </mxCell>
        <mxCell id="aAILvsh82I3loS7dKXgY-21" value="" style="edgeStyle=orthogonalEdgeStyle;rounded=0;orthogonalLoop=1;jettySize=auto;html=1;endArrow=none;endFill=0;" edge="1" parent="1" source="aAILvsh82I3loS7dKXgY-6" target="aAILvsh82I3loS7dKXgY-1">
          <mxGeometry relative="1" as="geometry" />
        </mxCell>
        <mxCell id="aAILvsh82I3loS7dKXgY-22" style="edgeStyle=orthogonalEdgeStyle;rounded=0;orthogonalLoop=1;jettySize=auto;html=1;exitX=0.5;exitY=1;exitDx=0;exitDy=0;endArrow=none;endFill=0;" edge="1" parent="1" source="aAILvsh82I3loS7dKXgY-6" target="aAILvsh82I3loS7dKXgY-11">
          <mxGeometry relative="1" as="geometry" />
        </mxCell>
        <mxCell id="aAILvsh82I3loS7dKXgY-6" value="贴地距离测量" style="rounded=0;whiteSpace=wrap;html=1;" vertex="1" parent="1">
          <mxGeometry x="190" y="300" width="120" height="60" as="geometry" />
        </mxCell>
        <mxCell id="aAILvsh82I3loS7dKXgY-10" style="edgeStyle=orthogonalEdgeStyle;rounded=0;orthogonalLoop=1;jettySize=auto;html=1;exitX=1;exitY=0.5;exitDx=0;exitDy=0;" edge="1" parent="1" source="aAILvsh82I3loS7dKXgY-7" target="aAILvsh82I3loS7dKXgY-8">
          <mxGeometry relative="1" as="geometry" />
        </mxCell>
        <mxCell id="aAILvsh82I3loS7dKXgY-7" value="三维场景标记" style="rounded=0;whiteSpace=wrap;html=1;" vertex="1" parent="1">
          <mxGeometry x="354" y="300" width="120" height="60" as="geometry" />
        </mxCell>
        <mxCell id="aAILvsh82I3loS7dKXgY-8" value="系统实时输出结果" style="rounded=0;whiteSpace=wrap;html=1;" vertex="1" parent="1">
          <mxGeometry x="510" y="300" width="120" height="60" as="geometry" />
        </mxCell>
        <mxCell id="aAILvsh82I3loS7dKXgY-14" style="edgeStyle=orthogonalEdgeStyle;rounded=0;orthogonalLoop=1;jettySize=auto;html=1;exitX=1;exitY=0.5;exitDx=0;exitDy=0;entryX=0;entryY=0.5;entryDx=0;entryDy=0;" edge="1" parent="1" source="aAILvsh82I3loS7dKXgY-11" target="aAILvsh82I3loS7dKXgY-12">
          <mxGeometry relative="1" as="geometry" />
        </mxCell>
        <mxCell id="aAILvsh82I3loS7dKXgY-23" style="edgeStyle=orthogonalEdgeStyle;rounded=0;orthogonalLoop=1;jettySize=auto;html=1;exitX=0.5;exitY=1;exitDx=0;exitDy=0;endArrow=none;endFill=0;" edge="1" parent="1" source="aAILvsh82I3loS7dKXgY-11" target="aAILvsh82I3loS7dKXgY-16">
          <mxGeometry relative="1" as="geometry" />
        </mxCell>
        <mxCell id="aAILvsh82I3loS7dKXgY-11" value="面积量测" style="rounded=0;whiteSpace=wrap;html=1;" vertex="1" parent="1">
          <mxGeometry x="190" y="390" width="120" height="60" as="geometry" />
        </mxCell>
        <mxCell id="aAILvsh82I3loS7dKXgY-15" style="edgeStyle=orthogonalEdgeStyle;rounded=0;orthogonalLoop=1;jettySize=auto;html=1;exitX=1;exitY=0.5;exitDx=0;exitDy=0;" edge="1" parent="1" source="aAILvsh82I3loS7dKXgY-12" target="aAILvsh82I3loS7dKXgY-13">
          <mxGeometry relative="1" as="geometry" />
        </mxCell>
        <mxCell id="aAILvsh82I3loS7dKXgY-12" value="多边形顶点标记" style="rounded=0;whiteSpace=wrap;html=1;" vertex="1" parent="1">
          <mxGeometry x="354" y="390" width="120" height="60" as="geometry" />
        </mxCell>
        <mxCell id="aAILvsh82I3loS7dKXgY-13" value="调整保存结果" style="rounded=0;whiteSpace=wrap;html=1;" vertex="1" parent="1">
          <mxGeometry x="510" y="390" width="120" height="60" as="geometry" />
        </mxCell>
        <mxCell id="aAILvsh82I3loS7dKXgY-19" style="edgeStyle=orthogonalEdgeStyle;rounded=0;orthogonalLoop=1;jettySize=auto;html=1;exitX=1;exitY=0.5;exitDx=0;exitDy=0;" edge="1" parent="1" source="aAILvsh82I3loS7dKXgY-16" target="aAILvsh82I3loS7dKXgY-17">
          <mxGeometry relative="1" as="geometry" />
        </mxCell>
        <mxCell id="aAILvsh82I3loS7dKXgY-16" value="高度量测" style="rounded=0;whiteSpace=wrap;html=1;" vertex="1" parent="1">
          <mxGeometry x="190" y="480" width="120" height="60" as="geometry" />
        </mxCell>
        <mxCell id="aAILvsh82I3loS7dKXgY-20" style="edgeStyle=orthogonalEdgeStyle;rounded=0;orthogonalLoop=1;jettySize=auto;html=1;exitX=1;exitY=0.5;exitDx=0;exitDy=0;" edge="1" parent="1" source="aAILvsh82I3loS7dKXgY-17" target="aAILvsh82I3loS7dKXgY-18">
          <mxGeometry relative="1" as="geometry" />
        </mxCell>
        <mxCell id="aAILvsh82I3loS7dKXgY-17" value="测量模式选择" style="rounded=0;whiteSpace=wrap;html=1;" vertex="1" parent="1">
          <mxGeometry x="354" y="480" width="120" height="60" as="geometry" />
        </mxCell>
        <mxCell id="aAILvsh82I3loS7dKXgY-18" value="确认保存结果" style="rounded=0;whiteSpace=wrap;html=1;" vertex="1" parent="1">
          <mxGeometry x="510" y="480" width="120" height="60" as="geometry" />
        </mxCell>
      </root>
    </mxGraphModel>
  </diagram>
</mxfile>
